<?xml version="1.0" standalone="no"?>
<!DOCTYPE svg PUBLIC "-//W3C//DTD SVG 20010904//EN"
 "http://www.w3.org/TR/2001/REC-SVG-20010904/DTD/svg10.dtd">
<svg version="1.0" xmlns="http://www.w3.org/2000/svg"
 width="856.000000pt" height="856.000000pt" viewBox="0 0 856.000000 856.000000"
 preserveAspectRatio="xMidYMid meet">
<metadata>
Created by potrace 1.14, written by Peter Selinger 2001-2017
</metadata>
<g transform="translate(0.000000,856.000000) scale(0.100000,-0.100000)"
fill="#000000" stroke="none">
<path d="M1600 6874 c-177 -38 -348 -171 -429 -334 -77 -156 -72 11 -69 -2298
l3 -2067 27 -73 c72 -198 209 -336 399 -402 l84 -30 2665 0 c2947 0 2704 -5
2850 66 103 51 222 170 273 275 72 147 67 -31 67 2264 0 2271 4 2116 -59 2250
-83 176 -246 306 -438 349 -65 14 -327 16 -2690 15 -2201 0 -2628 -3 -2683
-15z m2205 -1354 l90 -91 -572 -565 c-315 -311 -573 -571 -573 -577 0 -7 258
-270 572 -584 l573 -573 -90 -90 -90 -90 -667 667 -668 668 662 662 c365 365
665 663 668 663 3 0 46 -41 95 -90z m1726 -1902 l-666 -668 -90 90 -89 89 574
576 573 577 -574 574 -574 574 89 89 90 90 667 -662 667 -662 -667 -667z"/>
</g>
</svg>
